<svg xmlns="http://www.w3.org/2000/svg" version="1.1" xmlns:xlink="http://www.w3.org/1999/xlink"
    xmlns:svgjs="http://svgjs.com/svgjs" width="512" height="512" x="0" y="0" viewBox="0 0 512 512"
    style="enable-background:new 0 0 512 512" xml:space="preserve" class="">
    <g>
        <path
            d="M383.927 285.712c0 16.41 13.303 29.712 29.712 29.712h20.719c16.41 0 29.712 13.303 29.712 29.712 0 16.41-13.303 29.712-29.712 29.712H413.64c-16.41 0-29.712 13.303-29.712 29.712 0 16.41-13.303 29.712-29.712 29.712H157.785c-16.41 0-29.712-13.303-29.712-29.712 0-16.41-13.303-29.712-29.712-29.712H30.712C14.303 374.849 1 361.546 1 345.137c0-16.41 13.303-29.712 29.712-29.712H98.36c16.41 0 29.712-13.303 29.712-29.712 0-16.41-13.303-29.712-29.712-29.712H80.575c-16.41 0-29.712-13.303-29.712-29.712 0-16.41 13.303-29.712 29.712-29.712h101.909c16.41 0 29.712-13.303 29.712-29.712 0-16.41-13.303-29.712-29.712-29.712h-45.579c-16.41 0-29.712-13.303-29.712-29.712 0-16.41 13.303-29.712 29.712-29.712h238.19c16.41 0 29.712 13.303 29.712 29.712 0 16.41-13.303 29.712-29.712 29.712h-45.579c-16.41 0-29.712 13.303-29.712 29.712 0 16.41 13.303 29.712 29.712 29.712h151.772c16.41 0 29.712 13.303 29.712 29.712 0 16.41-13.303 29.712-29.712 29.712H413.64c-16.41-.001-29.713 13.302-29.713 29.711z"
            style="" fill="#86defd" data-original="#86defd" class=""></path>
        <path
            d="M345.765 414.093H152.976c-9.844 0-16.943-9.436-14.213-18.895l10.968-38.01V198.803c0-8.17 6.623-14.793 14.793-14.793H334.25c8.17 0 14.793 6.623 14.793 14.793v158.385l10.939 38.021c2.72 9.456-4.377 18.884-14.217 18.884z"
            style="" fill="#ff5f79" data-original="#ff5f79" class=""></path>
        <path
            d="m318.12 225.777 45.863-.001c5.447 0 9.862 4.415 9.862 9.862v15.73c0 5.447-4.415 9.862-9.862 9.862l-45.863.001a9.859 9.859 0 0 1-5.572-1.725l-11.487-7.865c-5.721-3.917-5.721-12.358 0-16.275l11.487-7.865a9.866 9.866 0 0 1 5.572-1.724z"
            style="" fill="#ffffff" data-original="#ffffff"></path>
        <path
            d="M363.984 266.329c8.25 0 14.961-6.714 14.961-14.961V235.64c0-8.253-6.711-14.966-14.961-14.966l-9.819.001V198.79c0-10.967-8.923-19.887-19.892-19.887h-39.158c-5.04-50.686-23.01-86.112-45.694-86.112-22.296 0-40.521 36.023-45.709 86.112h-39.166c-10.967 0-19.889 8.92-19.889 19.887v157.687l-10.823 37.319c-3.644 12.796 5.952 25.415 19.135 25.415h192.779c13.207 0 22.78-12.63 19.13-25.43l-10.713-37.299v-90.151h9.819zm4.761-30.689v15.728a4.767 4.767 0 0 1-4.761 4.761h-45.865a4.748 4.748 0 0 1-2.689-.832l-11.485-7.864c-2.771-1.896-2.767-5.964-.003-7.859l11.49-7.869a4.766 4.766 0 0 1 2.687-.827l45.865-.005a4.77 4.77 0 0 1 4.761 4.767zM249.421 102.99c14.536 0 30.414 30.047 35.337 75.912h-70.752c4.933-45.865 20.845-75.912 35.415-75.912zm94.544 249.098H181.039a5.099 5.099 0 0 0-5.1 5.1c0 2.819 2.284 5.1 5.1 5.1h164.182l9.85 34.301c1.786 6.244-2.883 12.421-9.323 12.421H152.969c-6.464 0-11.095-6.202-9.331-12.401l11.017-37.991c.134-.458.202-.936.202-1.419v-158.41c0-5.339 4.345-9.687 9.689-9.687h38.314c-.41 6.24-.634 12.653-.634 19.22 0 2.819 2.284 5.1 5.1 5.1s5.1-2.281 5.1-5.1c0-6.649.265-13.032.686-19.22h72.536c.42 6.188.685 12.57.685 19.22 0 2.819 2.284 5.1 5.1 5.1s5.1-2.281 5.1-5.1c0-6.582-.211-12.994-.602-19.22h38.341c5.344 0 9.692 4.348 9.692 9.687v21.886l-25.846.003c-3.036 0-5.959.906-8.452 2.615l-11.49 7.864c-8.669 5.945-8.668 18.75.003 24.693l11.492 7.869a14.928 14.928 0 0 0 8.447 2.61h25.846v85.759z"
            style="" fill="#07028f" data-original="#07028f" class=""></path>
    </g>
</svg>